# xmcd CD database file
#
# Track frame offsets:
#	150
#	19058
#	31839
#	46263
#	61718
#	75456
#	86832
#	106847
#	133553
#	166076
#	180643
#	201839
#	215076
#	233937
#
# Disc length: 3766 seconds
#
# Revision: 0
# Processed by: cddbd v1.5.1PL0 Copyright (c) Steve Scherf et al.
# Submitted via: CDex 1.51
#
DISCID=ae0eb40e
DTITLE=Phil Pritchett and the Full Band - Cool and Unusual Punishment LIVE
DYEAR=2003
DGENRE=Country
TTITLE0=Colorado on Trial
TTITLE1=God Save the King
TTITLE2=Mexican Restraunt
TTITLE3=Willin'
TTITLE4=Time Equals Distance
TTITLE5=Devil In A Sleeping Bag
TTITLE6=Tougher Than The Rest
TTITLE7=Bruising Sheetrock
TTITLE8=Luke Skywalker and Indiana Jones
TTITLE9=Doesn't Make a Difference
TTITLE10=Feeling Port Aransas
TTITLE11=Suicide Blues
TTITLE12=What I Got
TTITLE13=Maria
EXTD=YEAR: 2003
EXTT0=
EXTT1=
EXTT2=
EXTT3=
EXTT4=
EXTT5=
EXTT6=
EXTT7=
EXTT8=
EXTT9=
EXTT10=
EXTT11=
EXTT12=
EXTT13=
PLAYORDER=
